<?xml version="1.0" encoding="utf-8"?>
<!-- Generator: Adobe Illustrator 26.0.2, SVG Export Plug-In . SVG Version: 6.00 Build 0)  -->
<svg version="1.1" id="レイヤー_1" xmlns="http://www.w3.org/2000/svg" xmlns:xlink="http://www.w3.org/1999/xlink" x="0px"
	 y="0px" viewBox="0 0 16 16" style="enable-background:new 0 0 16 16;" xml:space="preserve">
<style type="text/css">
	.st0{fill-rule:evenodd;clip-rule:evenodd;fill:#AE9045;}
</style>
<rect class="st0" width="16" height="16"/>
<path d="M5.4,2.6V0.9H1v4.4h1.8v5.3H1v4.4h4.4v-1.8h5.3v1.8H15v-4.4h-1.8V5.3H15V0.9h-4.4v1.8H5.4z M10.6,3.5v1.8h1.8v5.3h-1.8v1.8
	H5.4v-1.8H3.6V5.3h1.8V3.5H10.6z M11.5,1.8h2.6v2.6h-2.6V1.8z M14.2,11.4v2.6h-2.6v-2.6H14.2z M4.5,14.1H1.8v-2.6h2.6V14.1z
	 M1.8,4.4V1.8h2.6v2.6H1.8z"/>
</svg>
