<?xml version="1.0" encoding="utf-8"?>
<!-- Generator: Adobe Illustrator 26.0.2, SVG Export Plug-In . SVG Version: 6.00 Build 0)  -->
<svg version="1.1" id="レイヤー_1" xmlns="http://www.w3.org/2000/svg" xmlns:xlink="http://www.w3.org/1999/xlink" x="0px"
	 y="0px" viewBox="0 0 16 16" style="enable-background:new 0 0 16 16;" xml:space="preserve">
<style type="text/css">
	.st0{fill-rule:evenodd;clip-rule:evenodd;fill:#AE9045;}
</style>
<rect class="st0" width="16" height="16"/>
<path d="M4,2v2H2V2H4z M5,14v-2c0-0.6-0.4-1-1-1H2c-0.6,0-1,0.4-1,1v2c0,0.6,0.4,1,1,1h2C4.6,15,5,14.6,5,14z M5,9V7
	c0-0.6-0.4-1-1-1H2C1.4,6,1,6.4,1,7v2c0,0.6,0.4,1,1,1h2C4.6,10,5,9.6,5,9z M5,4V2c0-0.6-0.4-1-1-1H2C1.4,1,1,1.4,1,2v2
	c0,0.6,0.4,1,1,1h2C4.6,5,5,4.6,5,4z M10,14v-2c0-0.6-0.4-1-1-1H7c-0.6,0-1,0.4-1,1v2c0,0.6,0.4,1,1,1h2C9.6,15,10,14.6,10,14z
	 M10,9V7c0-0.6-0.4-1-1-1H7C6.4,6,6,6.4,6,7v2c0,0.6,0.4,1,1,1h2C9.6,10,10,9.6,10,9z M10,4V2c0-0.6-0.4-1-1-1H7C6.4,1,6,1.4,6,2v2
	c0,0.6,0.4,1,1,1h2C9.6,5,10,4.6,10,4z M9,2v2H7V2H9z M14,2v2h-2V2H14z M4,7v2H2V7H4z M9,7v2H7V7H9z M14,7h-2v2h2V7z M4,12v2H2v-2H4
	z M9,12v2H7v-2H9z M14,12v2h-2v-2H14z M12,1c-0.6,0-1,0.4-1,1v2c0,0.6,0.4,1,1,1h2c0.6,0,1-0.4,1-1V2c0-0.6-0.4-1-1-1H12z M11,7
	c0-0.6,0.4-1,1-1h2c0.6,0,1,0.4,1,1v2c0,0.6-0.4,1-1,1h-2c-0.6,0-1-0.4-1-1V7z M12,11c-0.6,0-1,0.4-1,1v2c0,0.6,0.4,1,1,1h2
	c0.6,0,1-0.4,1-1v-2c0-0.6-0.4-1-1-1H12z"/>
</svg>
