<?xml version="1.0" encoding="utf-8"?>
<!-- Generator: Adobe Illustrator 26.0.2, SVG Export Plug-In . SVG Version: 6.00 Build 0)  -->
<svg version="1.1" id="レイヤー_1" xmlns="http://www.w3.org/2000/svg" xmlns:xlink="http://www.w3.org/1999/xlink" x="0px"
	 y="0px" viewBox="0 0 16 16" style="enable-background:new 0 0 16 16;" xml:space="preserve">
<style type="text/css">
	.st0{fill-rule:evenodd;clip-rule:evenodd;fill:#AE9045;}
</style>
<rect class="st0" width="16" height="16"/>
<path d="M8.1,2.2c0.8-0.8,2-0.8,2.8,0l3.9,3.9c0.8,0.8,0.8,2,0,2.8l-5.5,5.5C8.9,14.8,8.4,15,7.9,15H5.1c-0.5,0-1-0.2-1.4-0.6
	l-2.5-2.5c-0.8-0.8-0.8-2,0-2.8L8.1,2.2L8.1,2.2z M10.2,2.9c-0.4-0.4-1-0.4-1.4,0L4.2,7.5l5.3,5.3l4.6-4.6c0.4-0.4,0.4-1,0-1.4
	C14.1,6.8,10.2,2.9,10.2,2.9z M8.7,13.5L3.5,8.3L1.9,9.8c-0.4,0.4-0.4,1,0,1.4l2.5,2.5C4.6,13.9,4.9,14,5.1,14h2.8
	c0.3,0,0.5-0.1,0.7-0.3L8.7,13.5L8.7,13.5z"/>
</svg>
