<?xml version="1.0" encoding="utf-8"?>
<!-- Generator: Adobe Illustrator 26.0.2, SVG Export Plug-In . SVG Version: 6.00 Build 0)  -->
<svg version="1.1" id="レイヤー_1" xmlns="http://www.w3.org/2000/svg" xmlns:xlink="http://www.w3.org/1999/xlink" x="0px"
	 y="0px" viewBox="0 0 16 16" style="enable-background:new 0 0 16 16;" xml:space="preserve">
<style type="text/css">
	.st0{fill-rule:evenodd;clip-rule:evenodd;fill:#AE9045;}
</style>
<rect class="st0" width="16" height="16"/>
<path d="M6.2,6c0,0.7-0.6,1.3-1.3,1.3S3.6,6.7,3.6,6s0.6-1.3,1.3-1.3S6.2,5.3,6.2,6z"/>
<path d="M2.7,2c-1,0-1.8,0.8-1.8,1.8v8.8c0,1,0.8,1.8,1.8,1.8h10.6c1,0,1.8-0.8,1.8-1.8V3.8c0-1-0.8-1.8-1.8-1.8C13.3,2,2.7,2,2.7,2
	z M13.3,2.9c0.5,0,0.9,0.4,0.9,0.9v5.7l-3.3-1.7c-0.2-0.1-0.4-0.1-0.5,0.1l-3.3,3.3L4.7,9.6C4.5,9.5,4.3,9.5,4.2,9.6l-2.3,2.1V3.8
	c0-0.5,0.4-0.9,0.9-0.9H13.3z"/>
</svg>
