<?xml version="1.0" encoding="utf-8"?>
<!-- Generator: Adobe Illustrator 26.0.2, SVG Export Plug-In . SVG Version: 6.00 Build 0)  -->
<svg version="1.1" id="レイヤー_1" xmlns="http://www.w3.org/2000/svg" xmlns:xlink="http://www.w3.org/1999/xlink" x="0px"
	 y="0px" viewBox="0 0 16 16" style="enable-background:new 0 0 16 16;" xml:space="preserve">
<style type="text/css">
	.st0{fill-rule:evenodd;clip-rule:evenodd;fill:#AE9045;}
	.st1{fill-rule:evenodd;clip-rule:evenodd;}
</style>
<rect class="st0" width="16" height="16"/>
<path class="st1" d="M7.6,0.1C7.8,0,8.2,0,8.4,0.1c0,0,0,0,0,0l2,2c0.2,0.2,0.2,0.5,0,0.7C10.2,3,9.8,3,9.6,2.9l0,0L8.5,1.7v3.8
	C8.5,5.8,8.3,6,8,6C7.7,6,7.5,5.8,7.5,5.5V1.7L6.4,2.9C6.2,3,5.8,3,5.6,2.9c-0.2-0.2-0.2-0.5,0-0.7l0,0C5.6,2.1,7.6,0.1,7.6,0.1z
	 M8,10c0.3,0,0.5,0.2,0.5,0.5v3.8l1.1-1.1c0.2-0.2,0.5-0.2,0.7,0s0.2,0.5,0,0.7l-2,2c-0.2,0.2-0.5,0.2-0.7,0c0,0,0,0,0,0l-2-2
	c-0.2-0.2-0.2-0.5,0-0.7s0.5-0.2,0.7,0l1.1,1.1v-3.8C7.5,10.2,7.7,10,8,10z M0.1,8.4C0,8.2,0,7.8,0.1,7.6c0,0,0,0,0,0l2-2
	c0.2-0.2,0.5-0.2,0.7,0C3,5.8,3,6.2,2.9,6.4L1.7,7.5h3.8C5.8,7.5,6,7.7,6,8S5.8,8.5,5.5,8.5H1.7l1.1,1.1c0.2,0.2,0.2,0.5,0,0.7
	c-0.2,0.2-0.5,0.2-0.7,0l0,0C2.1,10.4,0.1,8.4,0.1,8.4z M10,8c0-0.3,0.2-0.5,0.5-0.5h3.8l-1.1-1.1c-0.2-0.2-0.2-0.5,0-0.7
	s0.5-0.2,0.7,0l0,0l2,2c0.2,0.2,0.2,0.5,0,0.7c0,0,0,0,0,0l-2,2c-0.2,0.2-0.5,0.2-0.7,0s-0.2-0.5,0-0.7l1.1-1.1h-3.8
	C10.2,8.5,10,8.3,10,8z"/>
</svg>
