<?xml version="1.0" encoding="utf-8"?>
<!-- Generator: Adobe Illustrator 26.0.2, SVG Export Plug-In . SVG Version: 6.00 Build 0)  -->
<svg version="1.1" id="レイヤー_1" xmlns="http://www.w3.org/2000/svg" xmlns:xlink="http://www.w3.org/1999/xlink" x="0px"
	 y="0px" viewBox="0 0 16 16" style="enable-background:new 0 0 16 16;" xml:space="preserve">
<style type="text/css">
	.st0{fill-rule:evenodd;clip-rule:evenodd;fill:#AE9045;}
</style>
<rect class="st0" width="16" height="16"/>
<path d="M13.4,0.6c-0.5-0.5-1.2-0.5-1.7,0c0,0,0,0,0,0L8.5,3.8L7.9,3.1C7.7,3,7.3,3,7.1,3.1C7,3.3,7,3.7,7.1,3.9L8.3,5l-7.1,7.1
	C1.1,12.2,1,12.4,1,12.5v1.8l-0.9,0.9c-0.2,0.2-0.2,0.5,0,0.7s0.5,0.2,0.7,0l0,0L1.7,15h1.8c0.1,0,0.3-0.1,0.4-0.1L11,7.7l1.1,1.1
	c0.2,0.2,0.5,0.2,0.7,0s0.2-0.5,0-0.7l-0.6-0.6l3.1-3.1c0.5-0.5,0.5-1.2,0-1.7c0,0,0,0,0,0C15.4,2.6,13.4,0.6,13.4,0.6z M2,12.7l7-7
	L10.3,7l-7,7H2V12.7z"/>
</svg>
